<svg width="238" height="121" viewBox="0 0 238 121" fill="none" xmlns="http://www.w3.org/2000/svg">
<path d="M0 28.8025C0 26.9145 1.52825 25.384 3.41345 25.384H22.5153C28.7152 25.384 33.6099 25.8741 37.1993 26.8543C40.7887 27.7801 43.4263 29.4138 45.1123 31.7554C46.7982 34.097 47.6412 37.3372 47.6412 41.4759V63.0406C47.6412 67.0704 46.8526 70.2016 45.2754 72.4343C43.6983 74.6126 41.115 76.1646 37.5256 77.0903C33.9362 77.9617 28.96 78.3973 22.5969 78.3973H3.41345C1.52825 78.3973 0 76.8668 0 74.9788V28.8025ZM22.0259 69.3303C25.5065 69.3303 28.117 69.1942 29.8573 68.9219C31.652 68.5951 32.93 67.9961 33.6914 67.1248C34.5072 66.2535 34.9151 64.8921 34.9151 63.0406V41.2308C34.9151 38.7258 33.909 36.9832 31.8967 36.003C29.9389 34.9683 26.7846 34.451 22.4338 34.451H12.7261V69.3303H22.0259Z" fill="#161618"/>
<path d="M71.2009 79.2141C66.1431 79.2141 62.5809 78.3156 60.5142 76.5186C58.502 74.667 57.4959 71.7808 57.4959 67.86V42.2804C57.4959 40.3925 59.0241 38.862 60.9093 38.862H65.9927C67.8779 38.862 69.4062 40.3925 69.4062 42.2804V66.2263C69.4062 67.7511 69.5421 68.8947 69.814 69.6571C70.1404 70.4194 70.7386 70.964 71.6087 71.2907C72.5333 71.6175 73.9201 71.7808 75.7692 71.7808C78.1077 71.7808 79.8209 71.6447 80.9086 71.3724C81.9963 71.0457 82.7305 70.5011 83.1111 69.7387C83.4918 68.9763 83.6822 67.8055 83.6822 66.2263V42.2804C83.6822 40.3925 85.2104 38.862 87.0956 38.862H92.179C94.0642 38.862 95.5925 40.3925 95.5925 42.2804V74.9788C95.5925 76.8668 94.0642 78.3973 92.179 78.3973H87.2588C85.3736 78.3973 83.8453 76.8668 83.8453 74.9788V73.5779C82.9752 77.3354 78.7604 79.2141 71.2009 79.2141Z" fill="#161618"/>
<path d="M126.067 79.2141C121.064 79.2141 117.094 78.6968 114.157 77.6621C111.274 76.6275 109.208 75.0482 107.957 72.9244C106.706 70.7462 106.081 67.8872 106.081 64.3476V24.6365C106.081 22.7486 107.609 21.2181 109.494 21.2181H114.578C116.463 21.2181 117.991 22.7486 117.991 24.6365V42.7828C118.698 40.9858 120.003 39.7605 121.907 39.107C123.81 38.3991 126.774 38.0451 130.799 38.0451C134.225 38.0451 136.971 38.3174 139.038 38.862C141.159 39.4065 142.763 40.2778 143.851 41.4759C144.884 42.6739 145.591 44.0081 145.972 45.4784C146.353 46.8943 146.543 48.8547 146.543 51.3597V64.3476C146.543 69.6843 144.939 73.4962 141.73 75.7834C138.521 78.0706 133.3 79.2141 126.067 79.2141ZM126.23 71.7808C128.569 71.7808 130.336 71.6175 131.533 71.2907C132.729 70.964 133.545 70.3922 133.98 69.5754C134.415 68.7585 134.633 67.5332 134.633 65.8996V51.278C134.633 49.481 134.442 48.2012 134.062 47.4388C133.681 46.622 132.92 46.0774 131.778 45.8051C130.635 45.5329 128.759 45.3967 126.149 45.3967C123.919 45.3967 122.206 45.5873 121.009 45.9685C119.867 46.3497 119.079 46.9487 118.644 47.7656C118.209 48.5824 117.991 49.7532 117.991 51.278V65.8996C117.991 67.5332 118.181 68.7585 118.562 69.5754C118.997 70.3922 119.786 70.964 120.928 71.2907C122.124 71.6175 123.892 71.7808 126.23 71.7808Z" fill="#161618"/>
<g clip-path="url(#clip0_566_12302)">
<path fill-rule="evenodd" clip-rule="evenodd" d="M229.018 3.91945L228.6 29.5768C228.565 31.7694 226.072 33.0071 224.309 31.7081L222.806 30.6012C221.539 29.6688 219.755 29.9517 218.838 31.2318L200.755 56.4684C200.224 57.2086 199.369 57.6472 198.459 57.6472H176.665C175.755 57.6472 174.901 57.2086 174.37 56.4684L137.192 4.59725C135.85 2.72534 137.186 0.117878 139.486 0.117878H157.409C158.322 0.117878 159.178 0.559921 159.709 1.30373L185.213 37.1104C186.341 38.6923 188.689 38.6912 189.814 37.1081L202.653 19.0456C203.509 17.8409 203.238 16.1705 202.046 15.2994L200.423 14.1136C198.65 12.8193 199.082 10.0597 201.164 9.36896L225.476 1.31198C227.238 0.727308 229.049 2.06051 229.018 3.91945Z" fill="#15142F"/>
<path fill-rule="evenodd" clip-rule="evenodd" d="M229.018 3.91945L228.6 29.5768C228.565 31.7694 226.072 33.0071 224.309 31.7081L222.806 30.6012C221.539 29.6688 219.755 29.9517 218.838 31.2318L200.755 56.4684C200.224 57.2086 199.369 57.6472 198.459 57.6472H176.665C175.755 57.6472 174.901 57.2086 174.37 56.4684L137.192 4.59725C135.85 2.72534 137.186 0.117878 139.486 0.117878H157.409C158.322 0.117878 159.178 0.559921 159.709 1.30373L185.213 37.1104C186.341 38.6923 188.689 38.6912 189.814 37.1081L202.653 19.0456C203.509 17.8409 203.238 16.1705 202.046 15.2994L200.423 14.1136C198.65 12.8193 199.082 10.0597 201.164 9.36896L225.476 1.31198C227.238 0.727308 229.049 2.06051 229.018 3.91945Z" fill="url(#paint0_linear_566_12302)"/>
<path fill-rule="evenodd" clip-rule="evenodd" d="M232.714 120.133H214.691C213.783 120.133 212.932 119.697 212.401 118.96L186.596 83.1843C185.47 81.6236 183.151 81.62 182.021 83.1784L166.309 104.841C165.226 106.351 163.104 106.681 161.646 105.596C160.137 104.511 159.807 102.388 160.89 100.877L163.058 97.9026C164.142 96.3937 163.813 94.2696 162.304 93.1851C160.796 92.0982 158.723 92.4283 157.638 93.9395L147.602 107.768C146.517 109.278 144.397 109.608 142.888 108.522C141.428 107.438 141.098 105.314 142.135 103.804L170.93 63.778C171.461 63.0401 172.315 62.6028 173.222 62.6028H195.493C196.403 62.6028 197.256 63.0413 197.787 63.7804L235.009 115.651C236.352 117.523 235.016 120.132 232.715 120.132L232.714 120.133Z" fill="#15142F"/>
<path fill-rule="evenodd" clip-rule="evenodd" d="M232.714 120.133H214.691C213.783 120.133 212.932 119.697 212.401 118.96L186.596 83.1843C185.47 81.6236 183.151 81.62 182.021 83.1784L166.309 104.841C165.226 106.351 163.104 106.681 161.646 105.596C160.137 104.511 159.807 102.388 160.89 100.877L163.058 97.9026C164.142 96.3937 163.813 94.2696 162.304 93.1851C160.796 92.0982 158.723 92.4283 157.638 93.9395L147.602 107.768C146.517 109.278 144.397 109.608 142.888 108.522C141.428 107.438 141.098 105.314 142.135 103.804L170.93 63.778C171.461 63.0401 172.315 62.6028 173.222 62.6028H195.493C196.403 62.6028 197.256 63.0413 197.787 63.7804L235.009 115.651C236.352 117.523 235.016 120.132 232.715 120.132L232.714 120.133Z" fill="url(#paint1_linear_566_12302)"/>
<g style="mix-blend-mode:screen" opacity="0.56">
<path fill-rule="evenodd" clip-rule="evenodd" d="M202.28 19.57L202.653 19.0456C202.966 18.6051 203.128 18.1023 203.15 17.5991C203.418 17.3535 203.746 17.1559 204.129 17.0287L228.435 8.97281C228.603 8.9173 228.771 8.87913 228.937 8.8571L228.6 29.5768C228.565 31.7694 226.072 33.0071 224.309 31.7081L222.805 30.6012C221.539 29.6688 219.755 29.9517 218.838 31.2318L200.755 56.4684C200.224 57.2086 199.369 57.6472 198.459 57.6472H183.15L205.618 26.7051C206.475 25.5006 206.203 23.8305 205.011 22.9583L203.388 21.7726C202.625 21.2158 202.271 20.3878 202.28 19.57ZM188.573 85.9258L186.596 83.1843C185.47 81.6236 183.151 81.6201 182.021 83.1784L166.309 104.841C165.226 106.351 163.104 106.681 161.646 105.596C160.137 104.511 159.807 102.388 160.89 100.877L163.058 97.9026C164.142 96.3937 163.813 94.2696 162.304 93.1851C160.982 92.2326 159.227 92.3684 158.083 93.4337L173.091 72.594C174.153 71.1194 175.858 70.2457 177.673 70.2457H199.965L188.573 85.9258Z" fill="url(#paint2_linear_566_12302)"/>
</g>
</g>
<defs>
<linearGradient id="paint0_linear_566_12302" x1="156.784" y1="0.117876" x2="203.477" y2="57.5753" gradientUnits="userSpaceOnUse">
<stop offset="0.651706" stop-color="#EB1E27"/>
<stop offset="1" stop-color="#F33E48"/>
</linearGradient>
<linearGradient id="paint1_linear_566_12302" x1="141.483" y1="110.393" x2="235.532" y2="120.089" gradientUnits="userSpaceOnUse">
<stop stop-color="#F3952C"/>
<stop offset="0.393541" stop-color="#ED4128"/>
<stop offset="0.656171" stop-color="#EC2B27"/>
<stop offset="1" stop-color="#F0602A"/>
</linearGradient>
<linearGradient id="paint2_linear_566_12302" x1="232.09" y1="18.5633" x2="144.503" y2="116.545" gradientUnits="userSpaceOnUse">
<stop offset="0.460026" stop-color="#EB1D26"/>
<stop offset="1" stop-color="#F3952C"/>
</linearGradient>
<clipPath id="clip0_566_12302">
<rect width="98.8877" height="120.015" fill="white" transform="translate(136.656 0.117878)"/>
</clipPath>
</defs>
</svg>
